<svg xmlns="http://www.w3.org/2000/svg" width="899" height="556" viewBox="0 0 899 556">
    <g fill="none" fill-rule="evenodd" transform="translate(1 2)">
        <rect width="270" height="63" x="308" y="314" fill="#FECD46" fill-rule="nonzero" rx="11"/>
        <rect width="200" height="63" x="343" y="48" fill="#FECD46" fill-rule="nonzero" rx="11"/>
        <path fill="#2C334D" d="M228.815 63h-6.465V52.365h6.465v1.365h-4.995V57h4.53v1.38h-4.53v3.255h4.995V63zm9.615 0l-1.155-2.97h-4.71L231.44 63h-1.575l4.23-10.635h1.695L240.02 63h-1.59zm-3.525-9.105l-1.815 4.77h3.66l-1.845-4.77zm8.085 3.435h2.13c1.275 0 2.055-.705 2.055-1.8 0-1.125-.78-1.845-2.055-1.845h-2.13v3.645zm2.4 1.32h-2.4V63h-1.47V52.365h3.87c1.965 0 3.285 1.365 3.285 3.15 0 1.8-1.32 3.135-3.285 3.135zm11.475.66H252.8v-1.23h4.065v1.23zm11.805-4.53l-1.32.465c-.12-.765-.765-1.815-2.25-1.815-1.2 0-2.055.78-2.055 1.77 0 .765.465 1.35 1.365 1.545l1.59.345c1.77.39 2.76 1.5 2.76 2.985 0 1.65-1.41 3.15-3.675 3.15-2.565 0-3.78-1.65-3.975-3.165l1.41-.45c.105 1.185.945 2.28 2.55 2.28 1.47 0 2.19-.765 2.19-1.695 0-.765-.525-1.425-1.59-1.65l-1.515-.33c-1.515-.33-2.595-1.32-2.595-2.91 0-1.665 1.545-3.165 3.51-3.165 2.4 0 3.36 1.485 3.6 2.64zm3.615 8.22h-1.5V52.365h1.5V63zm14.19 0h-1.455v-8.28L281.39 63h-1.35l-3.6-8.28V63h-1.455V52.365h1.995l3.75 8.655 3.78-8.655h1.965V63zM230.72 108h-1.47v-4.725h-5.43V108h-1.47V97.365h1.47v4.545h5.43v-4.545h1.47V108zm9.48-8.22l-1.32.465c-.12-.765-.765-1.815-2.25-1.815-1.2 0-2.055.78-2.055 1.77 0 .765.465 1.35 1.365 1.545l1.59.345c1.77.39 2.76 1.5 2.76 2.985 0 1.65-1.41 3.15-3.675 3.15-2.565 0-3.78-1.65-3.975-3.165l1.41-.45c.105 1.185.945 2.28 2.55 2.28 1.47 0 2.19-.765 2.19-1.695 0-.765-.525-1.425-1.59-1.65l-1.515-.33c-1.515-.33-2.595-1.32-2.595-2.91 0-1.665 1.545-3.165 3.51-3.165 2.4 0 3.36 1.485 3.6 2.64zm6.63 1.995l-1.47-.18c-.015-.135-.015-.27-.015-.39 0-1.665 1.23-3.15 3.36-3.15 2.085 0 3.285 1.365 3.285 2.985 0 1.275-.72 2.295-1.83 3l-1.92 1.23c-.555.36-1.05.765-1.185 1.365h4.995V108h-6.81c.03-1.59.66-2.805 2.31-3.87l1.62-1.05c.915-.585 1.335-1.275 1.335-2.025 0-.885-.6-1.71-1.83-1.71-1.275 0-1.875.885-1.875 1.995 0 .135.015.285.03.435zm6.87 5.265c0-.585.45-1.05 1.035-1.05s1.05.465 1.05 1.05a1.03 1.03 0 0 1-1.05 1.035c-.585 0-1.035-.45-1.035-1.035zm5.04-3.9c0 1.485.27 2.535.855 3.15.375.39.855.63 1.545.63s1.17-.24 1.545-.63c.585-.615.855-1.665.855-3.15 0-1.485-.27-2.535-.855-3.15-.375-.39-.855-.63-1.545-.63s-1.17.24-1.545.63c-.585.615-.855 1.665-.855 3.15zm-1.455 0c0-1.335.225-2.565.87-3.525.63-.945 1.605-1.56 2.985-1.56s2.355.615 2.985 1.56c.645.96.87 2.19.87 3.525s-.225 2.565-.87 3.525c-.63.945-1.605 1.56-2.985 1.56s-2.355-.615-2.985-1.56c-.645-.96-.87-2.19-.87-3.525z"/>
        <g fill="#2C334D">
            <path d="M421.087 69.19l1.725-6.825h2.43L422.348 73h-2.445l-2.265-7.05-2.28 7.05h-2.49l-2.895-10.635h2.52l1.755 6.81 2.205-6.81h2.43l2.205 6.825zm7.59 3.81h-2.28v-7.455h2.28V73zm-2.475-9.735c0-.735.6-1.335 1.32-1.335.75 0 1.35.6 1.35 1.335s-.6 1.335-1.35 1.335c-.72 0-1.32-.6-1.32-1.335zm8.64 6.24h-4.5V67.45h4.5v2.055zM439.057 73h-2.385V62.365h6.855v2.25h-4.484v2.25h3.945v2.16h-3.93V73zm8.25 0h-2.28v-7.455h2.28V73zm-2.475-9.735c0-.735.6-1.335 1.32-1.335.75 0 1.35.6 1.35 1.335s-.6 1.335-1.35 1.335c-.72 0-1.32-.6-1.32-1.335zM460.268 73l-.766-2.16h-4.11l-.765 2.16h-2.49l4.005-10.635h2.745L462.847 73h-2.58zm-2.79-7.995l-1.306 3.675h2.58l-1.275-3.675zm9.06 2.13h1.38c.9 0 1.514-.525 1.514-1.35 0-.855-.615-1.365-1.515-1.365h-1.38v2.715zm1.62 2.04h-1.636V73h-2.37V62.365h4.005c2.16 0 3.645 1.425 3.645 3.405 0 2.01-1.485 3.405-3.645 3.405zM410.391 98l-.96-1.035c-.735.75-1.665 1.245-2.79 1.245-2.1 0-3.285-1.455-3.285-2.925 0-1.305.675-2.07 1.815-2.895l-.15-.165c-.51-.555-1.11-1.32-1.11-2.28 0-1.815 1.53-2.82 3.015-2.82 1.755 0 3.045 1.125 3.045 2.73 0 1.065-.72 1.89-1.5 2.46l-.345.255 1.425 1.5 2.835-2.895v2.79l-1.5 1.515 2.385 2.52h-2.88zm-3.69-1.74c.525 0 .975-.255 1.41-.705l-1.65-1.77-.075.06c-.495.36-.825.735-.825 1.32 0 .555.45 1.095 1.14 1.095zm-.675-6.39c0 .42.285.765.54 1.035l.255.27.42-.3c.435-.315.615-.675.615-1.02 0-.51-.405-.9-.93-.9-.45 0-.9.285-.9.915zM427.342 98h-1.92l-.15-1.08c-.465.675-1.47 1.305-2.985 1.305-2.955 0-5.385-2.175-5.385-5.535 0-3.345 2.535-5.55 5.535-5.55 3.045 0 4.455 1.8 4.92 3.285l-2.28.795c-.165-.66-.87-1.86-2.64-1.86-1.44 0-3.135.96-3.135 3.33 0 2.22 1.47 3.375 3.195 3.375 1.755 0 2.49-1.14 2.625-1.74h-3.195v-2.01h5.415V98zm1.395-2.055c0-1.32.975-2.07 2.205-2.25l1.755-.27c.405-.06.54-.255.54-.51 0-.435-.375-.81-1.095-.81-.795 0-1.23.54-1.275 1.095l-1.98-.405c.09-1.065 1.08-2.475 3.27-2.475 2.415 0 3.3 1.35 3.3 2.88v3.645c0 .585.075 1.08.09 1.155h-2.055c-.015-.06-.075-.33-.075-.84-.39.63-1.11 1.05-2.1 1.05-1.635 0-2.58-1.08-2.58-2.265zm3.135.615c.675 0 1.365-.33 1.365-1.485v-.33l-1.41.225c-.48.075-.84.3-.84.825 0 .39.255.765.885.765zm8.16-8.19v2.175h1.455v1.995h-1.455v2.79c0 .615.33.78.825.78.24 0 .465-.045.6-.075v1.89c-.09.045-.465.21-1.185.21-1.545 0-2.49-.915-2.49-2.4V92.54h-1.32v-1.995h.375c.78 0 1.155-.525 1.155-1.215v-.96h2.04zm4.71 5.01h2.985c-.03-.57-.42-1.26-1.5-1.26-.96 0-1.44.705-1.485 1.26zm3.15 1.935l1.905.54c-.36 1.29-1.545 2.37-3.435 2.37-2.055 0-3.885-1.47-3.885-3.975 0-2.4 1.785-3.93 3.72-3.93 2.31 0 3.735 1.425 3.735 3.825 0 .315-.03.66-.045.705h-5.19c.045.84.81 1.44 1.695 1.44.825 0 1.29-.39 1.5-.975zm7.605-4.77h2.415l1.455 4.425 1.245-4.425h2.235L460.537 98h-2.264l-1.62-4.815-1.59 4.815h-2.31l-2.34-7.455h2.37l1.245 4.41 1.47-4.41zm8.055 5.4c0-1.32.975-2.07 2.205-2.25l1.755-.27c.405-.06.54-.255.54-.51 0-.435-.375-.81-1.095-.81-.795 0-1.23.54-1.275 1.095l-1.98-.405c.09-1.065 1.08-2.475 3.27-2.475 2.415 0 3.3 1.35 3.3 2.88v3.645c0 .585.075 1.08.09 1.155h-2.055c-.015-.06-.075-.33-.075-.84-.39.63-1.11 1.05-2.1 1.05-1.635 0-2.58-1.08-2.58-2.265zm3.135.615c.675 0 1.365-.33 1.365-1.485v-.33l-1.41.225c-.48.075-.84.3-.84.825 0 .39.255.765.885.765zm8.205 4.305h-2.4l1.695-3.87-3.135-6.45h2.55l1.815 3.99 1.65-3.99h2.415l-4.59 10.32zM356.103 335.19l1.725-6.825h2.43L357.363 339h-2.445l-2.265-7.05-2.28 7.05h-2.49l-2.895-10.635h2.52l1.755 6.81 2.205-6.81h2.43l2.205 6.825zm7.59 3.81h-2.28v-7.455h2.28V339zm-2.475-9.735c0-.735.6-1.335 1.32-1.335.75 0 1.35.6 1.35 1.335s-.6 1.335-1.35 1.335c-.72 0-1.32-.6-1.32-1.335zm8.64 6.24h-4.5v-2.055h4.5v2.055zm4.214 3.495h-2.385v-10.635h6.855v2.25h-4.485v2.25h3.945v2.16h-3.93V339zm8.25 0h-2.28v-7.455h2.28V339zm-2.475-9.735c0-.735.6-1.335 1.32-1.335.75 0 1.35.6 1.35 1.335s-.6 1.335-1.35 1.335c-.72 0-1.32-.6-1.32-1.335zm15.63 1.71l-2.13.6c-.075-.495-.48-1.335-1.77-1.335-.885 0-1.455.555-1.455 1.14 0 .51.315.885 1.05 1.02l1.425.27c2.025.375 3.075 1.68 3.075 3.195 0 1.665-1.395 3.36-3.93 3.36-2.94 0-4.2-1.905-4.35-3.405l2.175-.525c.09.975.75 1.83 2.205 1.83.93 0 1.5-.45 1.5-1.11 0-.54-.435-.93-1.14-1.065l-1.455-.27c-1.8-.345-2.895-1.545-2.895-3.12 0-2.01 1.77-3.42 3.81-3.42 2.655 0 3.66 1.59 3.885 2.835zm3.375 3.405h2.985c-.03-.57-.42-1.26-1.5-1.26-.96 0-1.44.705-1.485 1.26zm3.15 1.935l1.905.54c-.36 1.29-1.545 2.37-3.435 2.37-2.055 0-3.885-1.47-3.885-3.975 0-2.4 1.785-3.93 3.72-3.93 2.31 0 3.735 1.425 3.735 3.825 0 .315-.03.66-.045.705h-5.19c.045.84.81 1.44 1.695 1.44.825 0 1.29-.39 1.5-.975zm8.25-4.77v2.25a3.094 3.094 0 0 0-.72-.075c-.915 0-1.74.54-1.74 2.025V339h-2.28v-7.455h2.205v1.005c.39-.84 1.335-1.08 1.935-1.08.225 0 .45.03.6.075zm8.94 0L416.357 339h-2.295l-3.06-7.455h2.475l1.725 4.635 1.59-4.635h2.4zm3.435 7.455h-2.28v-7.455h2.28V339zm-2.475-9.735c0-.735.6-1.335 1.32-1.335.75 0 1.35.6 1.35 1.335s-.6 1.335-1.35 1.335c-.72 0-1.32-.6-1.32-1.335zm7.905 4.155c-.945 0-1.71.66-1.71 1.86 0 1.185.795 1.845 1.74 1.845.885 0 1.38-.555 1.545-1.11l2.01.615c-.33 1.305-1.56 2.595-3.555 2.595-2.22 0-4.005-1.635-4.005-3.945 0-2.325 1.74-3.96 3.93-3.96 2.055 0 3.255 1.26 3.585 2.595l-2.04.615c-.165-.57-.615-1.11-1.5-1.11zm6.63.96h2.985c-.03-.57-.42-1.26-1.5-1.26-.96 0-1.44.705-1.485 1.26zm3.15 1.935l1.905.54c-.36 1.29-1.545 2.37-3.435 2.37-2.055 0-3.885-1.47-3.885-3.975 0-2.4 1.785-3.93 3.72-3.93 2.31 0 3.735 1.425 3.735 3.825 0 .315-.03.66-.045.705h-5.19c.045.84.81 1.44 1.695 1.44.825 0 1.29-.39 1.5-.975zM457.232 339h-2.325v-7.05l-2.775 7.05h-1.92l-2.775-6.96V339h-2.25v-10.635h3.09l2.925 7.185 2.775-7.185h3.255V339zm1.695-2.055c0-1.32.975-2.07 2.205-2.25l1.755-.27c.405-.06.54-.255.54-.51 0-.435-.375-.81-1.095-.81-.795 0-1.23.54-1.275 1.095l-1.98-.405c.09-1.065 1.08-2.475 3.27-2.475 2.415 0 3.3 1.35 3.3 2.88v3.645c0 .585.075 1.08.09 1.155h-2.055c-.015-.06-.075-.33-.075-.84-.39.63-1.11 1.05-2.1 1.05-1.635 0-2.58-1.08-2.58-2.265zm3.135.615c.675 0 1.365-.33 1.365-1.485v-.33l-1.41.225c-.48.075-.84.3-.84.825 0 .39.255.765.885.765zm7.785-2.835V339h-2.28v-7.455h2.205v.855c.405-.705 1.32-1.05 2.085-1.05 1.875 0 2.715 1.335 2.715 2.97V339h-2.28v-4.29c0-.735-.39-1.29-1.215-1.29-.75 0-1.23.555-1.23 1.305zm6.195 2.22c0-1.32.975-2.07 2.205-2.25l1.755-.27c.405-.06.54-.255.54-.51 0-.435-.375-.81-1.095-.81-.795 0-1.23.54-1.275 1.095l-1.98-.405c.09-1.065 1.08-2.475 3.27-2.475 2.415 0 3.3 1.35 3.3 2.88v3.645c0 .585.075 1.08.09 1.155h-2.055c-.015-.06-.075-.33-.075-.84-.39.63-1.11 1.05-2.1 1.05-1.635 0-2.58-1.08-2.58-2.265zm3.135.615c.675 0 1.365-.33 1.365-1.485v-.33l-1.41.225c-.48.075-.84.3-.84.825 0 .39.255.765.885.765zm4.935 1.86l2.01-.57c.15.72.75 1.245 1.605 1.245 1.14 0 1.845-.555 1.845-1.905v-.345c-.27.405-.915.84-1.995.84-1.98 0-3.465-1.56-3.465-3.63 0-1.965 1.425-3.645 3.465-3.645 1.215 0 1.86.54 2.07.93v-.795h2.175v6.525c0 2.145-1.2 4.005-3.99 4.005-2.145 0-3.51-1.32-3.72-2.655zm3.885-2.715c.93 0 1.59-.63 1.59-1.65s-.735-1.65-1.59-1.65c-.855 0-1.605.63-1.605 1.65s.69 1.65 1.605 1.65zm7.47-2.325h2.985c-.03-.57-.42-1.26-1.5-1.26-.96 0-1.44.705-1.485 1.26zm3.15 1.935l1.905.54c-.36 1.29-1.545 2.37-3.435 2.37-2.055 0-3.885-1.47-3.885-3.975 0-2.4 1.785-3.93 3.72-3.93 2.31 0 3.735 1.425 3.735 3.825 0 .315-.03.66-.045.705h-5.19c.045.84.81 1.44 1.695 1.44.825 0 1.29-.39 1.5-.975zm5.79 2.685h-2.28v-7.455h2.175v.855c.375-.66 1.335-1.08 2.145-1.08 1.065 0 1.83.435 2.205 1.17.585-.84 1.305-1.17 2.31-1.17 1.41 0 2.76.825 2.76 2.85V339h-2.205v-4.32c0-.705-.375-1.26-1.185-1.26s-1.245.615-1.245 1.275V339h-2.25v-4.32c0-.705-.375-1.26-1.2-1.26-.795 0-1.23.615-1.23 1.29V339zm12.96-4.62h2.985c-.03-.57-.42-1.26-1.5-1.26-.96 0-1.44.705-1.485 1.26zm3.15 1.935l1.905.54c-.36 1.29-1.545 2.37-3.435 2.37-2.055 0-3.885-1.47-3.885-3.975 0-2.4 1.785-3.93 3.72-3.93 2.31 0 3.735 1.425 3.735 3.825 0 .315-.03.66-.045.705h-5.19c.045.84.81 1.44 1.695 1.44.825 0 1.29-.39 1.5-.975zm5.79-1.59V339h-2.28v-7.455h2.205v.855c.405-.705 1.32-1.05 2.085-1.05 1.875 0 2.715 1.335 2.715 2.97V339h-2.28v-4.29c0-.735-.39-1.29-1.215-1.29-.75 0-1.23.555-1.23 1.305zm9.375-5.355v2.175h1.455v1.995h-1.455v2.79c0 .615.33.78.825.78.24 0 .465-.045.6-.075v1.89c-.09.045-.464.21-1.184.21-1.546 0-2.49-.915-2.49-2.4v-3.195h-1.32v-1.995h.374c.78 0 1.155-.525 1.155-1.215v-.96h2.04zm-121.387 28.765h1.38c.9 0 1.515-.525 1.515-1.35 0-.855-.615-1.365-1.515-1.365h-1.38v2.715zm1.62 2.04h-1.635V364h-2.37v-10.635h4.005c2.16 0 3.645 1.425 3.645 3.405 0 2.01-1.485 3.405-3.645 3.405zm7.23 3.825h-2.28v-10.86h2.28V364zm1.485-2.055c0-1.32.975-2.07 2.205-2.25l1.755-.27c.405-.06.54-.255.54-.51 0-.435-.375-.81-1.095-.81-.795 0-1.23.54-1.275 1.095l-1.98-.405c.09-1.065 1.08-2.475 3.27-2.475 2.415 0 3.3 1.35 3.3 2.88v3.645c0 .585.075 1.08.09 1.155h-2.055c-.015-.06-.075-.33-.075-.84-.39.63-1.11 1.05-2.1 1.05-1.635 0-2.58-1.08-2.58-2.265zm3.135.615c.675 0 1.365-.33 1.365-1.485v-.33l-1.41.225c-.48.075-.84.3-.84.825 0 .39.255.765.885.765zm8.16-8.19v2.175h1.455v1.995h-1.455v2.79c0 .615.33.78.825.78.24 0 .465-.045.6-.075v1.89c-.09.045-.465.21-1.185.21-1.545 0-2.49-.915-2.49-2.4v-3.195h-1.32v-1.995h.375c.78 0 1.155-.525 1.155-1.215v-.96h2.04zm7.245 4.095h-1.62V364h-2.28v-5.535h-1.185v-1.92h1.185v-.645c0-1.71 1.035-2.88 2.85-2.88.465 0 .87.06 1.08.165v1.86a2.558 2.558 0 0 0-.675-.075c-.405 0-.975.18-.975 1.005v.57h1.62v1.92zm4.515 3.66c.87 0 1.68-.6 1.68-1.86 0-1.26-.81-1.845-1.68-1.845-.855 0-1.68.585-1.68 1.845 0 1.245.825 1.86 1.68 1.86zm0-5.805c2.235 0 3.96 1.635 3.96 3.945 0 2.31-1.725 3.96-3.96 3.96-2.22 0-3.96-1.65-3.96-3.96s1.74-3.945 3.96-3.945zm10.17.225v2.25a3.094 3.094 0 0 0-.72-.075c-.915 0-1.74.54-1.74 2.025V364h-2.28v-7.455h2.205v1.005c.39-.84 1.335-1.08 1.935-1.08.225 0 .45.03.6.075zm3.66 7.455h-2.28v-7.455h2.175v.855c.375-.66 1.335-1.08 2.145-1.08 1.065 0 1.83.435 2.205 1.17.585-.84 1.305-1.17 2.31-1.17 1.41 0 2.76.825 2.76 2.85V364h-2.205v-4.32c0-.705-.375-1.26-1.185-1.26s-1.245.615-1.245 1.275V364h-2.25v-4.32c0-.705-.375-1.26-1.2-1.26-.795 0-1.23.615-1.23 1.29V364z"/>
        </g>
        <path fill="#2C334D" d="M345.855 224l-2.43-4.35h-1.59V224h-1.485v-10.635h4.005c2.01 0 3.255 1.41 3.255 3.165 0 1.53-.975 2.715-2.58 3.015l2.535 4.455h-1.71zm-4.02-5.67h2.25c1.2 0 2.01-.705 2.01-1.8 0-1.125-.81-1.845-2.01-1.845h-2.25v3.645zm7.125 3.735c0-1.29.945-2.01 2.19-2.19l1.95-.285c.435-.06.555-.285.555-.54 0-.705-.465-1.29-1.56-1.29-.99 0-1.545.615-1.635 1.455l-1.35-.315c.15-1.38 1.395-2.34 2.955-2.34 2.16 0 3 1.23 3 2.64v3.615c0 .63.06 1.005.09 1.185h-1.38c-.03-.18-.075-.45-.075-.975-.315.51-1.035 1.2-2.325 1.2-1.47 0-2.415-1.02-2.415-2.16zm2.61.975c1.155 0 2.085-.555 2.085-2.13v-.33l-2.205.33c-.6.09-1.05.435-1.05 1.08 0 .54.45 1.05 1.17 1.05zm6.525-2.67c0 1.485.765 2.58 2.115 2.58 1.29 0 2.085-1.125 2.085-2.61 0-1.485-.78-2.505-2.07-2.505-1.29 0-2.13 1.05-2.13 2.535zm4.215 2.655v-.12c-.345.69-1.11 1.29-2.235 1.29-2.115 0-3.42-1.68-3.42-3.825 0-2.04 1.38-3.78 3.42-3.78 1.275 0 1.965.63 2.205 1.215v-4.665h1.395v9.525c0 .69.06 1.215.075 1.335h-1.365a6.043 6.043 0 0 1-.075-.975zm5.16.975h-1.395v-7.215h1.395V224zm-1.71-9.945c0-.57.45-1.02 1.005-1.02.57 0 1.02.45 1.02 1.02 0 .555-.45 1.005-1.02 1.005-.555 0-1.005-.45-1.005-1.005zm8.865 9.075c-.39.75-1.29 1.095-2.13 1.095-1.68 0-2.7-1.26-2.7-2.895v-4.545h1.41v4.335c0 .99.45 1.86 1.635 1.86 1.14 0 1.71-.75 1.71-1.845v-4.35h1.41v5.88c0 .57.045 1.08.075 1.335h-1.35c-.03-.165-.06-.57-.06-.87zm3.06-1.005l1.275-.45c.09.75.66 1.35 1.68 1.35.795 0 1.23-.45 1.23-.96 0-.45-.33-.795-.93-.93l-1.23-.27c-1.125-.24-1.8-1.005-1.8-2.025 0-1.23 1.155-2.28 2.565-2.28 1.98 0 2.595 1.29 2.745 1.935l-1.245.465c-.06-.375-.36-1.2-1.5-1.2-.72 0-1.2.465-1.2.96 0 .435.27.75.825.87l1.17.255c1.305.285 1.995 1.08 1.995 2.145 0 1.02-.855 2.235-2.64 2.235-1.98 0-2.82-1.275-2.94-2.1z"/>
        <path fill-rule="nonzero" stroke="#2C334D" stroke-linecap="square" d="M442.25 292.5v-158M442.25 503.5v-47M266.208 503.5v-47M611.208 503.5v-47"/>
        <path fill="#2C334D" d="M210.505 549.965l-2.43-4.35h-1.59v4.35H205V539.33h4.005c2.01 0 3.255 1.41 3.255 3.165 0 1.53-.975 2.715-2.58 3.015l2.535 4.455h-1.71zm-4.02-5.67h2.25c1.2 0 2.01-.705 2.01-1.8 0-1.125-.81-1.845-2.01-1.845h-2.25v3.645zm10.44 4.635c1.2 0 2.25-.9 2.25-2.58 0-1.665-1.05-2.565-2.25-2.565s-2.25.9-2.25 2.565c0 1.68 1.05 2.58 2.25 2.58zm0-6.405c2.16 0 3.69 1.635 3.69 3.825 0 2.205-1.53 3.84-3.69 3.84s-3.69-1.635-3.69-3.84c0-2.19 1.53-3.825 3.69-3.825zm5.04 5.505c0-1.29.945-2.01 2.19-2.19l1.95-.285c.435-.06.555-.285.555-.54 0-.705-.465-1.29-1.56-1.29-.99 0-1.545.615-1.635 1.455l-1.35-.315c.15-1.38 1.395-2.34 2.955-2.34 2.16 0 3 1.23 3 2.64v3.615c0 .63.06 1.005.09 1.185h-1.38c-.03-.18-.075-.45-.075-.975-.315.51-1.035 1.2-2.325 1.2-1.47 0-2.415-1.02-2.415-2.16zm2.61.975c1.155 0 2.085-.555 2.085-2.13v-.33l-2.205.33c-.6.09-1.05.435-1.05 1.08 0 .54.45 1.05 1.17 1.05zm7.08.96h-1.395v-7.215h1.35v.96c.45-.795 1.35-1.17 2.19-1.17.9 0 1.77.435 2.16 1.365.57-1.035 1.5-1.365 2.415-1.365 1.26 0 2.49.855 2.49 2.745v4.68h-1.395v-4.53c0-.945-.465-1.65-1.53-1.65-.99 0-1.665.78-1.665 1.815v4.365h-1.41v-4.53c0-.93-.45-1.65-1.53-1.65-1.005 0-1.68.75-1.68 1.83v4.35zm12.855 0h-1.395v-7.215h1.395v7.215zm-1.71-9.945c0-.57.45-1.02 1.005-1.02.57 0 1.02.45 1.02 1.02 0 .555-.45 1.005-1.02 1.005-.555 0-1.005-.45-1.005-1.005zm5.52 5.775v4.17h-1.41v-7.215h1.38v1.035c.525-.9 1.38-1.245 2.22-1.245 1.725 0 2.58 1.245 2.58 2.85v4.575h-1.41v-4.335c0-1.005-.42-1.815-1.68-1.815-1.11 0-1.68.885-1.68 1.98zm6.495 4.56l1.365-.315c.105 1.005.87 1.77 1.965 1.77 1.515 0 2.205-.78 2.205-2.34v-1.035c-.345.66-1.125 1.185-2.205 1.185-1.92 0-3.315-1.455-3.315-3.495 0-1.95 1.335-3.51 3.315-3.51 1.11 0 1.86.42 2.22 1.14v-1.005h1.395v6.675c0 1.83-.9 3.615-3.615 3.615-1.8 0-3.15-1.14-3.33-2.685zm3.54-1.92c1.215 0 2.055-.915 2.055-2.31s-.84-2.31-2.055-2.31c-1.245 0-2.085.915-2.085 2.31 0 1.41.81 2.31 2.085 2.31zm18.765 1.53h-1.185l-.135-1.5c-.465.84-1.62 1.725-3.405 1.725-2.67 0-5.16-1.95-5.16-5.55 0-3.6 2.64-5.535 5.265-5.535 2.31 0 4.095 1.29 4.71 3.21l-1.335.57c-.48-1.53-1.725-2.43-3.375-2.43-1.905 0-3.765 1.365-3.765 4.185 0 2.82 1.8 4.215 3.705 4.215 2.37 0 3.225-1.68 3.285-2.775h-3.69v-1.32h5.085v5.205zm3.03-4.35h3.945c-.03-1.035-.705-1.845-1.98-1.845-1.185 0-1.905.915-1.965 1.845zm4.155 1.875l1.215.42c-.405 1.275-1.56 2.28-3.24 2.28-1.935 0-3.63-1.41-3.63-3.855 0-2.265 1.635-3.81 3.45-3.81 2.22 0 3.465 1.53 3.465 3.78 0 .18-.015.36-.03.45h-5.43c.03 1.29.96 2.19 2.175 2.19 1.17 0 1.755-.645 2.025-1.455zm4.95-7.02v2.28h1.56v1.275h-1.56v3.75c0 .66.27.99 1.005.99.18 0 .435-.03.555-.06v1.2c-.12.045-.48.135-.96.135-1.23 0-2.01-.75-2.01-2.055v-3.96h-1.38v-1.275h.39c.78 0 1.11-.48 1.11-1.11v-1.17h1.29zm4.275 5.145h3.945c-.03-1.035-.705-1.845-1.98-1.845-1.185 0-1.905.915-1.965 1.845zm4.155 1.875l1.215.42c-.405 1.275-1.56 2.28-3.24 2.28-1.935 0-3.63-1.41-3.63-3.855 0-2.265 1.635-3.81 3.45-3.81 2.22 0 3.465 1.53 3.465 3.78 0 .18-.015.36-.03.45h-5.43c.03 1.29.96 2.19 2.175 2.19 1.17 0 1.755-.645 2.025-1.455zm7.05-4.74h1.455l1.875 5.43 1.59-5.43h1.485l-2.34 7.215h-1.455l-1.92-5.49-1.875 5.49h-1.485l-2.37-7.215h1.545l1.62 5.43 1.875-5.43zm7.305 5.28c0-1.29.945-2.01 2.19-2.19l1.95-.285c.435-.06.555-.285.555-.54 0-.705-.465-1.29-1.56-1.29-.99 0-1.545.615-1.635 1.455l-1.35-.315c.15-1.38 1.395-2.34 2.955-2.34 2.16 0 3 1.23 3 2.64v3.615c0 .63.06 1.005.09 1.185h-1.38c-.03-.18-.075-.45-.075-.975-.315.51-1.035 1.2-2.325 1.2-1.47 0-2.415-1.02-2.415-2.16zm2.61.975c1.155 0 2.085-.555 2.085-2.13v-.33l-2.205.33c-.6.09-1.05.435-1.05 1.08 0 .54.45 1.05 1.17 1.05zm7.335 3.975h-1.545l1.8-3.81-3.105-6.42h1.62l2.25 4.98 2.16-4.98h1.515l-4.695 10.23zM386.28 550.085c-2.745 0-5.28-1.995-5.28-5.55 0-3.555 2.64-5.535 5.28-5.535 2.43 0 4.14 1.32 4.68 3.375l-1.365.48c-.405-1.605-1.575-2.505-3.315-2.505-1.935 0-3.78 1.41-3.78 4.185 0 2.775 1.845 4.2 3.78 4.2 1.815 0 2.955-1.095 3.39-2.55l1.305.48c-.57 1.995-2.25 3.42-4.695 3.42zm7.11-4.575h3.945c-.03-1.035-.705-1.845-1.98-1.845-1.185 0-1.905.915-1.965 1.845zm4.155 1.875l1.215.42c-.405 1.275-1.56 2.28-3.24 2.28-1.935 0-3.63-1.41-3.63-3.855 0-2.265 1.635-3.81 3.45-3.81 2.22 0 3.465 1.53 3.465 3.78 0 .18-.015.36-.03.45h-5.43c.03 1.29.96 2.19 2.175 2.19 1.17 0 1.755-.645 2.025-1.455zm4.47 2.475h-1.41V539h1.41v10.86zm3.81 0h-1.41V539h1.41v10.86zm7.08-.87c-.39.75-1.29 1.095-2.13 1.095-1.68 0-2.7-1.26-2.7-2.895v-4.545h1.41v4.335c0 .99.45 1.86 1.635 1.86 1.14 0 1.71-.75 1.71-1.845v-4.35h1.41v5.88c0 .57.045 1.08.075 1.335h-1.35c-.03-.165-.06-.57-.06-.87zm5.145.87h-1.41V539h1.41v10.86zm1.95-1.935c0-1.29.945-2.01 2.19-2.19l1.95-.285c.435-.06.555-.285.555-.54 0-.705-.465-1.29-1.56-1.29-.99 0-1.545.615-1.635 1.455l-1.35-.315c.15-1.38 1.395-2.34 2.955-2.34 2.16 0 3 1.23 3 2.64v3.615c0 .63.06 1.005.09 1.185h-1.38c-.03-.18-.075-.45-.075-.975-.315.51-1.035 1.2-2.325 1.2-1.47 0-2.415-1.02-2.415-2.16zm2.61.975c1.155 0 2.085-.555 2.085-2.13v-.33l-2.205.33c-.6.09-1.05.435-1.05 1.08 0 .54.45 1.05 1.17 1.05zm9.69-6.33v1.5a4.4 4.4 0 0 0-.615-.045c-1.185 0-1.98.63-1.98 2.22v3.615h-1.41v-7.215h1.38v1.26c.525-1.11 1.425-1.38 2.16-1.38.195 0 .39.03.465.045zm6.225 1.965c0 2.775 1.86 4.2 3.84 4.2 1.98 0 3.84-1.425 3.84-4.2 0-2.775-1.86-4.185-3.84-4.185-1.98 0-3.84 1.41-3.84 4.185zm-1.5 0c0-3.555 2.67-5.535 5.34-5.535s5.34 1.98 5.34 5.535-2.67 5.55-5.34 5.55-5.34-1.995-5.34-5.55zm13.95 8.175h-1.395v-10.065h1.365v1.125c.39-.72 1.245-1.29 2.415-1.29 2.16 0 3.315 1.665 3.315 3.765 0 2.145-1.245 3.81-3.36 3.81-1.11 0-1.95-.525-2.34-1.17v3.825zm4.26-6.465c0-1.44-.81-2.52-2.13-2.52-1.29 0-2.145 1.08-2.145 2.52 0 1.485.855 2.55 2.145 2.55 1.305 0 2.13-1.065 2.13-2.55zm4.155-.735h3.945c-.03-1.035-.705-1.845-1.98-1.845-1.185 0-1.905.915-1.965 1.845zm4.155 1.875l1.215.42c-.405 1.275-1.56 2.28-3.24 2.28-1.935 0-3.63-1.41-3.63-3.855 0-2.265 1.635-3.81 3.45-3.81 2.22 0 3.465 1.53 3.465 3.78 0 .18-.015.36-.03.45h-5.43c.03 1.29.96 2.19 2.175 2.19 1.17 0 1.755-.645 2.025-1.455zm7.065-4.815v1.5a4.4 4.4 0 0 0-.615-.045c-1.185 0-1.98.63-1.98 2.22v3.615h-1.41v-7.215h1.38v1.26c.525-1.11 1.425-1.38 2.16-1.38.195 0 .39.03.465.045zm1.05 5.355c0-1.29.945-2.01 2.19-2.19l1.95-.285c.435-.06.555-.285.555-.54 0-.705-.465-1.29-1.56-1.29-.99 0-1.545.615-1.635 1.455l-1.35-.315c.15-1.38 1.395-2.34 2.955-2.34 2.16 0 3 1.23 3 2.64v3.615c0 .63.06 1.005.09 1.185h-1.38c-.03-.18-.075-.45-.075-.975-.315.51-1.035 1.2-2.325 1.2-1.47 0-2.415-1.02-2.415-2.16zm2.61.975c1.155 0 2.085-.555 2.085-2.13v-.33l-2.205.33c-.6.09-1.05.435-1.05 1.08 0 .54.45 1.05 1.17 1.05zm7.575-8.535v2.28h1.56v1.275h-1.56v3.75c0 .66.27.99 1.005.99.18 0 .435-.03.555-.06v1.2c-.12.045-.48.135-.96.135-1.23 0-2.01-.75-2.01-2.055v-3.96h-1.38v-1.275h.39c.78 0 1.11-.48 1.11-1.11v-1.17h1.29zm6.45 8.46c1.2 0 2.25-.9 2.25-2.58 0-1.665-1.05-2.565-2.25-2.565s-2.25.9-2.25 2.565c0 1.68 1.05 2.58 2.25 2.58zm0-6.405c2.16 0 3.69 1.635 3.69 3.825 0 2.205-1.53 3.84-3.69 3.84s-3.69-1.635-3.69-3.84c0-2.19 1.53-3.825 3.69-3.825zm9.495.15v1.5a4.4 4.4 0 0 0-.615-.045c-1.185 0-1.98.63-1.98 2.22v3.615h-1.41v-7.215h1.38v1.26c.525-1.11 1.425-1.38 2.16-1.38.195 0 .39.03.465.045zm.825 5.415l1.275-.45c.09.75.66 1.35 1.68 1.35.795 0 1.23-.45 1.23-.96 0-.45-.33-.795-.93-.93l-1.23-.27c-1.125-.24-1.8-1.005-1.8-2.025 0-1.23 1.155-2.28 2.565-2.28 1.98 0 2.595 1.29 2.745 1.935l-1.245.465c-.06-.375-.36-1.2-1.5-1.2-.72 0-1.2.465-1.2.96 0 .435.27.75.825.87l1.17.255c1.305.285 1.995 1.08 1.995 2.145 0 1.02-.855 2.235-2.64 2.235-1.98 0-2.82-1.275-2.94-2.1zM560.955 550.225c-2.745 0-5.28-1.995-5.28-5.55 0-3.555 2.64-5.535 5.28-5.535 2.43 0 4.14 1.32 4.68 3.375l-1.365.48c-.405-1.605-1.575-2.505-3.315-2.505-1.935 0-3.78 1.41-3.78 4.185 0 2.775 1.845 4.2 3.78 4.2 1.815 0 2.955-1.095 3.39-2.55l1.305.48c-.57 1.995-2.25 3.42-4.695 3.42zm5.745-2.16c0-1.29.945-2.01 2.19-2.19l1.95-.285c.435-.06.555-.285.555-.54 0-.705-.465-1.29-1.56-1.29-.99 0-1.545.615-1.635 1.455l-1.35-.315c.15-1.38 1.395-2.34 2.955-2.34 2.16 0 3 1.23 3 2.64v3.615c0 .63.06 1.005.09 1.185h-1.38c-.03-.18-.075-.45-.075-.975-.315.51-1.035 1.2-2.325 1.2-1.47 0-2.415-1.02-2.415-2.16zm2.61.975c1.155 0 2.085-.555 2.085-2.13v-.33l-2.205.33c-.6.09-1.05.435-1.05 1.08 0 .54.45 1.05 1.17 1.05zm7.08.96h-1.395v-10.86h1.395v4.665c.345-.645 1.185-1.23 2.385-1.23 2.19 0 3.315 1.68 3.315 3.78 0 2.145-1.215 3.84-3.36 3.84-1.065 0-1.89-.465-2.34-1.245V550zm4.26-3.645c0-1.56-.825-2.535-2.13-2.535-1.245 0-2.145.975-2.145 2.535s.9 2.58 2.145 2.58c1.29 0 2.13-1.02 2.13-2.58zM585.3 550h-1.41v-10.86h1.41V550zm3.315-4.35h3.945c-.03-1.035-.705-1.845-1.98-1.845-1.185 0-1.905.915-1.965 1.845zm4.155 1.875l1.215.42c-.405 1.275-1.56 2.28-3.24 2.28-1.935 0-3.63-1.41-3.63-3.855 0-2.265 1.635-3.81 3.45-3.81 2.22 0 3.465 1.53 3.465 3.78 0 .18-.015.36-.03.45h-5.43c.03 1.29.96 2.19 2.175 2.19 1.17 0 1.755-.645 2.025-1.455zm7.785-2.85c0 2.775 1.86 4.2 3.84 4.2 1.98 0 3.84-1.425 3.84-4.2 0-2.775-1.86-4.185-3.84-4.185-1.98 0-3.84 1.41-3.84 4.185zm-1.5 0c0-3.555 2.67-5.535 5.34-5.535s5.34 1.98 5.34 5.535-2.67 5.55-5.34 5.55-5.34-1.995-5.34-5.55zm13.95 8.175h-1.395v-10.065h1.365v1.125c.39-.72 1.245-1.29 2.415-1.29 2.16 0 3.315 1.665 3.315 3.765 0 2.145-1.245 3.81-3.36 3.81-1.11 0-1.95-.525-2.34-1.17v3.825zm4.26-6.465c0-1.44-.81-2.52-2.13-2.52-1.29 0-2.145 1.08-2.145 2.52 0 1.485.855 2.55 2.145 2.55 1.305 0 2.13-1.065 2.13-2.55zm4.155-.735h3.945c-.03-1.035-.705-1.845-1.98-1.845-1.185 0-1.905.915-1.965 1.845zm4.155 1.875l1.215.42c-.405 1.275-1.56 2.28-3.24 2.28-1.935 0-3.63-1.41-3.63-3.855 0-2.265 1.635-3.81 3.45-3.81 2.22 0 3.465 1.53 3.465 3.78 0 .18-.015.36-.03.45h-5.43c.03 1.29.96 2.19 2.175 2.19 1.17 0 1.755-.645 2.025-1.455zm7.065-4.815v1.5a4.4 4.4 0 0 0-.615-.045c-1.185 0-1.98.63-1.98 2.22V550h-1.41v-7.215h1.38v1.26c.525-1.11 1.425-1.38 2.16-1.38.195 0 .39.03.465.045zm1.05 5.355c0-1.29.945-2.01 2.19-2.19l1.95-.285c.435-.06.555-.285.555-.54 0-.705-.465-1.29-1.56-1.29-.99 0-1.545.615-1.635 1.455l-1.35-.315c.15-1.38 1.395-2.34 2.955-2.34 2.16 0 3 1.23 3 2.64v3.615c0 .63.06 1.005.09 1.185h-1.38c-.03-.18-.075-.45-.075-.975-.315.51-1.035 1.2-2.325 1.2-1.47 0-2.415-1.02-2.415-2.16zm2.61.975c1.155 0 2.085-.555 2.085-2.13v-.33l-2.205.33c-.6.09-1.05.435-1.05 1.08 0 .54.45 1.05 1.17 1.05zm7.575-8.535v2.28h1.56v1.275h-1.56v3.75c0 .66.27.99 1.005.99.18 0 .435-.03.555-.06v1.2c-.12.045-.48.135-.96.135-1.23 0-2.01-.75-2.01-2.055v-3.96h-1.38v-1.275h.39c.78 0 1.11-.48 1.11-1.11v-1.17h1.29zm6.45 8.46c1.2 0 2.25-.9 2.25-2.58 0-1.665-1.05-2.565-2.25-2.565s-2.25.9-2.25 2.565c0 1.68 1.05 2.58 2.25 2.58zm0-6.405c2.16 0 3.69 1.635 3.69 3.825 0 2.205-1.53 3.84-3.69 3.84s-3.69-1.635-3.69-3.84c0-2.19 1.53-3.825 3.69-3.825zm9.495.15v1.5a4.4 4.4 0 0 0-.615-.045c-1.185 0-1.98.63-1.98 2.22V550h-1.41v-7.215h1.38v1.26c.525-1.11 1.425-1.38 2.16-1.38.195 0 .39.03.465.045zm.825 5.415l1.275-.45c.09.75.66 1.35 1.68 1.35.795 0 1.23-.45 1.23-.96 0-.45-.33-.795-.93-.93l-1.23-.27c-1.125-.24-1.8-1.005-1.8-2.025 0-1.23 1.155-2.28 2.565-2.28 1.98 0 2.595 1.29 2.745 1.935l-1.245.465c-.06-.375-.36-1.2-1.5-1.2-.72 0-1.2.465-1.2.96 0 .435.27.75.825.87l1.17.255c1.305.285 1.995 1.08 1.995 2.145 0 1.02-.855 2.235-2.64 2.235-1.98 0-2.82-1.275-2.94-2.1zM9.33 155.225c-2.16 0-3.825-1.35-3.825-3.855v-7.005H6.96v6.96c0 1.62.885 2.535 2.37 2.535 1.5 0 2.355-.915 2.355-2.535v-6.96h1.47v7.005c0 2.505-1.665 3.855-3.825 3.855zm5.55-2.1l1.275-.45c.09.75.66 1.35 1.68 1.35.795 0 1.23-.45 1.23-.96 0-.45-.33-.795-.93-.93l-1.23-.27c-1.125-.24-1.8-1.005-1.8-2.025 0-1.23 1.155-2.28 2.565-2.28 1.98 0 2.595 1.29 2.745 1.935l-1.245.465c-.06-.375-.36-1.2-1.5-1.2-.72 0-1.2.465-1.2.96 0 .435.27.75.825.87l1.17.255c1.305.285 1.995 1.08 1.995 2.145 0 1.02-.855 2.235-2.64 2.235-1.98 0-2.82-1.275-2.94-2.1zm8.295-2.475h3.945c-.03-1.035-.705-1.845-1.98-1.845-1.185 0-1.905.915-1.965 1.845zm4.155 1.875l1.215.42c-.405 1.275-1.56 2.28-3.24 2.28-1.935 0-3.63-1.41-3.63-3.855 0-2.265 1.635-3.81 3.45-3.81 2.22 0 3.465 1.53 3.465 3.78 0 .18-.015.36-.03.45h-5.43c.03 1.29.96 2.19 2.175 2.19 1.17 0 1.755-.645 2.025-1.455zm7.065-4.815v1.5a4.4 4.4 0 0 0-.615-.045c-1.185 0-1.98.63-1.98 2.22V155h-1.41v-7.215h1.38v1.26c.525-1.11 1.425-1.38 2.16-1.38.195 0 .39.03.465.045zM847.15 155h-1.5v-10.635h1.5V155zm3.96-4.17V155h-1.41v-7.215h1.38v1.035c.525-.9 1.38-1.245 2.22-1.245 1.725 0 2.58 1.245 2.58 2.85V155h-1.41v-4.335c0-1.005-.42-1.815-1.68-1.815-1.11 0-1.68.885-1.68 1.98zm8.91-5.325v2.28h1.56v1.275h-1.56v3.75c0 .66.27.99 1.005.99.18 0 .435-.03.555-.06v1.2c-.12.045-.48.135-.96.135-1.23 0-2.01-.75-2.01-2.055v-3.96h-1.38v-1.275h.39c.78 0 1.11-.48 1.11-1.11v-1.17h1.29zm4.275 5.145h3.945c-.03-1.035-.705-1.845-1.98-1.845-1.185 0-1.905.915-1.965 1.845zm4.155 1.875l1.215.42c-.405 1.275-1.56 2.28-3.24 2.28-1.935 0-3.63-1.41-3.63-3.855 0-2.265 1.635-3.81 3.45-3.81 2.22 0 3.465 1.53 3.465 3.78 0 .18-.015.36-.03.45h-5.43c.03 1.29.96 2.19 2.175 2.19 1.17 0 1.755-.645 2.025-1.455zm7.065-4.815v1.5a4.4 4.4 0 0 0-.615-.045c-1.185 0-1.98.63-1.98 2.22V155h-1.41v-7.215h1.38v1.26c.525-1.11 1.425-1.38 2.16-1.38.195 0 .39.03.465.045zm2.91 3.12V155h-1.41v-7.215h1.38v1.035c.525-.9 1.38-1.245 2.22-1.245 1.725 0 2.58 1.245 2.58 2.85V155h-1.41v-4.335c0-1.005-.42-1.815-1.68-1.815-1.11 0-1.68.885-1.68 1.98zm7.935-.18h3.945c-.03-1.035-.705-1.845-1.98-1.845-1.185 0-1.905.915-1.965 1.845zm4.155 1.875l1.215.42c-.405 1.275-1.56 2.28-3.24 2.28-1.935 0-3.63-1.41-3.63-3.855 0-2.265 1.635-3.81 3.45-3.81 2.22 0 3.465 1.53 3.465 3.78 0 .18-.015.36-.03.45h-5.43c.03 1.29.96 2.19 2.175 2.19 1.17 0 1.755-.645 2.025-1.455zm4.95-7.02v2.28h1.56v1.275h-1.56v3.75c0 .66.27.99 1.005.99.18 0 .435-.03.555-.06v1.2c-.12.045-.48.135-.96.135-1.23 0-2.01-.75-2.01-2.055v-3.96h-1.38v-1.275h.39c.78 0 1.11-.48 1.11-1.11v-1.17h1.29z"/>
        <path fill-rule="nonzero" stroke="#FECD46" stroke-dasharray="10,20" stroke-linecap="round" stroke-linejoin="round" stroke-width="3" d="M231 0h420c24.3 0 44 19.7 44 44v334c0 24.3-19.7 44-44 44H231c-24.3 0-44-19.7-44-44V44c0-24.3 19.7-44 44-44z"/>
        <path fill-rule="nonzero" stroke="#2C334D" stroke-linecap="square" d="M525.5 80.208h268M95.5 80.208h268"/>
        <g transform="translate(0 30)">
            <rect width="40" height="69" x="-.5" y="-.5" stroke="#2C334D" rx="5"/>
            <rect width="32" height="52" x="3.5" y="6.5" stroke="#2C334D" rx="2"/>
            <g fill="#2C334D" opacity=".3" transform="translate(10 2)">
                <circle cx="1" cy="1" r="1" style="mix-blend-mode:multiply"/>
                <rect width="14" height="2" x="4" rx="1"/>
            </g>
        </g>
        <g stroke="#2C334D" transform="translate(847 32)">
            <path fill-rule="nonzero" stroke-linecap="square" d="M.5 68.25h50"/>
            <path d="M29.294 3.891A9.5 9.5 0 0 1 41.5 12.958c4.121 1.293 7 5.132 7 9.542 0 5.523-4.477 10-10 10h-26c-5.523 0-10-4.477-10-10 0-4.511 3.011-8.413 7.258-9.62A11.038 11.038 0 0 1 9.5 10.5c0-6.075 4.925-11 11-11 3.505 0 6.734 1.652 8.794 4.391z"/>
            <path fill-rule="nonzero" stroke-linecap="square" d="M25 33v36"/>
            <circle cx="25" cy="69" r="4.5" fill="#FFF"/>
        </g>
    </g>
</svg>
